<svg id="Слой_3" data-name="Слой 3" xmlns="http://www.w3.org/2000/svg" viewBox="0 0 595.54 1000.18"><defs><style>.cls-1{fill:#d9663b;}.cls-2{fill:#fcc55b;}.cls-3{fill:#f5b947;}.cls-4{fill:#ffcc7b;}.cls-5{fill:#d66d3a;}.cls-6{fill:#fff;}.cls-7{fill:#5e4940;}.cls-8{fill:#f2874d;}</style></defs><title>Artboard 9</title><path class="cls-1" d="M424,771.66s1.73,105.89-11.33,122.25-84.23,6.26-96.62,25a57,57,0,0,0-9,38.1l21.85-24.91s50.11-12.66,71.49-6.34c0,0-32.94,31.65-24.61,52s19,22.42,19,22.42l2.7-26.07s22.8-28,28.83-42.4,42.09-10.67,55.79-7,28.07,9.72,37.43,7.06,24,13.39,24,13.39,1.69-20.72-2.65-27.08-22-6.37-22-6.37-34.74-15.41-55.46-17.11-10.85-120.48-10.85-120.48Z"/><path class="cls-1" d="M175.79,776.64s11.83,93.33-1.23,109.7S82.49,898.56,70.11,917.27s-14.33,45.1-14.33,45.1L83.4,933.55s56.7-10.4,77.66-7.16c0,0-39.52,29.37-31.19,49.77s19,22.41,19,22.41l2.7-26.07s28.1-25.7,34.14-40.07,36.78-13,50.48-9.3,28.06,9.72,37.42,7.06,24.05,13.4,24.05,13.4,1.7-20.73-2.64-27.08S273,910.14,273,910.14,238.25,894.72,217.53,893,214,782.73,214,782.73Z"/><path class="cls-2" d="M113.78,358S10.91,386,1.56,520.07s99.75,268.07,218.2,302.36,280.55,15.59,349.13-159-3.12-299.26-124.69-318S113.78,358,113.78,358Z"/><path class="cls-3" d="M380.18,502.48s-71.58,82.27-10.22,181,151.2,67.14,144.38-2-84.51-91.73-70.88-114.77S445,456.4,380.18,502.48Z"/><path class="cls-4" d="M364.88,490.7c-35.49,25.35-53.16,80.8,2.95,174.31s149.33,68.25,140.28,3.12c-8.51-61.16-40-84.14-44.37-129.26C460.83,508.64,407.2,460.47,364.88,490.7Z"/><path class="cls-3" d="M87.28,199.93S144.85,12.58,352.21,95.27c187,74.55,167.3,261.09,96.67,324.61-71.08,63.92-236.91,73.31-330.43-20S87.28,199.93,87.28,199.93Z"/><path class="cls-2" d="M87.28,191.2S149,11.69,354.74,92.73s162.72,260.56,94.14,304.2-244,77.13-337.48-10.15S87.28,191.2,87.28,191.2Z"/><path class="cls-5" d="M162.09,285.38c-15.66,10-35.33,15.21-55.76,15.21-12.68,0-27.89-10.14-40.56-15.21C30.92,271.44,0,241.07,0,241.07s53,15.59,84.16,18.71,65.26,15.46,65.26,15.46Z"/><path class="cls-6" d="M193.27,250.43c-18.91-21,8.11-73.3,56.69-64.47s47.25,51.1,27.47,67.58C258.73,269.13,217.86,277.78,193.27,250.43Z"/><path class="cls-7" d="M264.07,210.61c-8.62-10.43-23.68-10.47-35.26-4.94-9.52,2.47-18.11,11.83-19.26,21-2.56,20.5,23,23.69,37.78,21,8.17-1.45,15.31-5.08,19-12.83S269.58,217.26,264.07,210.61Z"/><path class="cls-6" d="M226.1,204.12a6,6,0,0,0-1.19,3.76,8.37,8.37,0,0,0,1.36,4.61,6,6,0,0,0,3.14,2.47,4.16,4.16,0,0,0,1.92.19c.85-.13,1.21-.78,1.58-1.53,1.48-2.92,1.17-7.53-1.5-9.71a5.22,5.22,0,0,0-4.07-1.22,4.22,4.22,0,0,0-3.44,3.3c-.18.6-.27,2.43.64,2.56a4.5,4.5,0,0,0,2-.54,5.67,5.67,0,0,1,2.77-.21,2.87,2.87,0,0,1,2.12,1.43c.36.66.22.91-.31,1.59.17-.1.34-.2.5-.31a4,4,0,0,1-3.87-1.18,3.9,3.9,0,0,1-1-1.61,1.36,1.36,0,0,1,0-.4c-.05-.91-.06-.17.21-.7a2.85,2.85,0,0,0,.05-2.09c-.14-.36-.51-.94-.9-.41Z"/><path class="cls-8" d="M0,241.07s40.52-31.17,68.58-40.52a107.48,107.48,0,0,0,33.94-18.82,10.12,10.12,0,0,1,15.94,4.61c4.22,12,6.89,28.52-6.24,36-21.82,12.47,16.3,42.38,47.34,45.27,25.93,2.41,15.21,22.81,15.21,22.81s-56.42-7.35-83.65-22.81C66.72,253.78,6.23,253.54,0,241.07Z"/><path class="cls-5" d="M84.27,226.51c2.94-3.16,6.72-4.82,10.81-5.95.73-.2.82-2.51,0-2.52-4.59,0-8.62,2.62-11.42,6.1-.45.57-.18,3.22.61,2.37Z"/><path class="cls-8" d="M230.53,107.94c-5.13,1.48-2.53-96.32,33-106.46,49-14,25.35,76,25.35,76s17.52-67.8,50.37-56.79c40.88,13.7-2.21,64.4-2.21,64.4s29.85-38.62,50.7-25.35c27.88,17.74-22.82,63.37-22.82,63.37S286.66,91.79,230.53,107.94Z"/><path class="cls-5" d="M230.53,107.94c-4.87,1.39,5.07-96.32,38-101.39s20.28,71,20.28,71,20.28-60.83,50.69-50.69S337,85.13,337,85.13s35.49-33,53.23-17.75-23.66,58.31-23.66,58.31S283.77,92.73,230.53,107.94Z"/><path class="cls-4" d="M126.25,492.9c-81.3,4.84-98.5,175.24,8,190.45S248.28,485.64,126.25,492.9Z"/><path class="cls-8" d="M134.57,966.71c1-8,11.2-7.84,13.7-1,.14.38.29-.31.26-.45a7.26,7.26,0,0,0-8-5.77,7.71,7.71,0,0,0-6.19,7.07c0,.26.2.56.25.15Z"/><path class="cls-8" d="M146.52,947.62c5.09-7,14.67-4.57,16.95,3.41.14.48.35-.07.32-.31-1-9.11-12.74-11.27-17.41-3.62-.07.12,0,.72.14.52Z"/><path class="cls-8" d="M164.22,931.44c3.11-6.52,11.54-4.44,13.29,1.84.12.44.37.05.35-.22a7.35,7.35,0,0,0-5.18-6.74c-3.69-1.06-7.23,1.25-8.69,4.59-.08.19.06.9.23.53Z"/><path class="cls-8" d="M79.66,914.81c6.85-1.24,13.1,4,12.2,11.17-.06.49.35,1,.47.3,1.18-7.45-5.13-13.95-12.67-12.18-.23,0-.2.74,0,.71Z"/><path class="cls-8" d="M98.71,909.26c6.89-.81,12.06,4.76,11,11.56,0,.27.2.88.37.35a9.92,9.92,0,0,0-11.38-12.6c-.22,0-.2.71,0,.69Z"/><path class="cls-8" d="M119.67,907c7.27-1,12.89,4.77,13.62,11.63,0,.41.33.39.38,0,1-7.53-7-13.76-14-12.41-.25,0-.23.82,0,.78Z"/><path class="cls-8" d="M146.89,902.26c5.52,1.31,9.67,5.9,9.34,11.77,0,.41.32.65.4.12.89-5.88-3.52-12.38-9.74-12.59-.22,0-.21.65,0,.7Z"/><path class="cls-8" d="M224.51,912.25c.33-3.53,3.13-12.78,8.44-9.76.28.16.27-.71.15-.84-1.82-2.07-4.68-.26-6,1.47a15.63,15.63,0,0,0-2.9,9c0,.35.3.58.35.11Z"/><path class="cls-8" d="M242.26,915.68a7.13,7.13,0,0,1,3.33-7.93A9.65,9.65,0,0,1,252,907c.22,0,.21-.66,0-.74-6.29-3.3-11.73,4.06-10.08,9.84.13.48.34-.14.28-.38Z"/><path class="cls-8" d="M258.06,920.49c.63-4.57,5.15-6.54,9.27-6.14.28,0,.28-.85.06-.94-4.55-1.8-9.2,2.46-9.73,6.83-.05.42.31.89.4.25Z"/><path class="cls-8" d="M332.56,915a7.45,7.45,0,0,1,6.5,8.55c0,.12.13.71.27.35,1.7-4.3-2.35-9.56-6.77-9.61-.21,0-.22.68,0,.71Z"/><path class="cls-8" d="M356,910.64a8,8,0,0,1,6.64,9.42c-.07.31.18,1.18.39.52a8.45,8.45,0,0,0-7-10.83c-.26,0-.28.85,0,.89Z"/><path class="cls-8" d="M380.58,908.5c4.16,1.36,6.28,4.61,6.92,8.8.05.32.28.33.32,0,.52-4.38-3.05-8.67-7.2-9.61-.21-.05-.25.74,0,.81Z"/><path class="cls-8" d="M402.79,905.71a6.57,6.57,0,0,1,2.62,8.73c-.07.15,0,.9.22.63,2.29-3.31,1-8.55-2.73-10.23-.28-.13-.33.74-.11.87Z"/><path class="cls-8" d="M380.47,966.73c4.54-4.33,10.21-3,14.87.16.21.14.19-.54.12-.64-3.5-4.93-11.2-4.13-15.12-.25-.16.15,0,.87.13.73Z"/><path class="cls-8" d="M388.76,950.24c4.74-4.81,12.07-3.53,16.36,1.07.28.3.29-.6.2-.77-3.47-6-12.43-5.86-16.74-1-.14.16-.06.92.18.68Z"/><path class="cls-8" d="M402.26,932.76c3.93-3.45,9.25-2.86,13.23.1.24.18.27-.67.15-.81-3.49-4.1-9.85-3.66-13.52-.08-.17.16,0,.95.14.79Z"/><path class="cls-8" d="M464.78,913.89c-.63-5.25,2.35-9,6.5-11.72.22-.14.22-1-.11-.9-5.07,1.7-7.4,7.89-6.72,12.82.07.51.37.13.33-.2Z"/><path class="cls-8" d="M481.1,917.72c-.6-6,4.16-9.46,9.26-10.92.23-.07.26-.76,0-.79-6.12-.73-10.19,6.63-9.57,11.9.06.5.35.13.31-.19Z"/><path class="cls-8" d="M498.06,921.84c.26-2.4.53-5.16,2.27-7a5.37,5.37,0,0,1,5.29-1.45c.32.06.25-.89.06-1-1.92-1.31-4.45-.09-5.8,1.51-1.77,2.11-2,5.08-2.22,7.7,0,.42.33.91.4.26Z"/><path class="cls-4" d="M216.59,142.16c-1.26,13.94,40.56,22.82,45.63,5.07S218.49,121.34,216.59,142.16Z"/></svg>