<svg id="Слой_3" data-name="Слой 3" xmlns="http://www.w3.org/2000/svg" viewBox="0 0 1545.29 857.73"><defs><style>.cls-1{opacity:0.23;}.cls-2{fill:#e8d5c3;}.cls-3{fill:#f7eeed;}.cls-4{fill:#fff;}</style></defs><title>egg1</title><ellipse class="cls-1" cx="625.87" cy="669.09" rx="594.42" ry="64.64"/><path class="cls-2" d="M158.76,73.24s-202.49,168-103.4,430.82,491.14,215.41,672.08,4.31c99.63-116.23,47.39-293,47.39-293S709.23,81,680.05,56C619.74,4.31,525,17.23,525,17.23l25.84,51.7L486.18,81.86,469,120.63,443.1,68.93l-47.39-4.31L369.86,0S249.23,8.62,158.76,73.24Z"/><path class="cls-3" d="M559.42,560.07c-8.62-12.92-64.62-34.47-99.09-38.77S412.94,461,382.78,413.59s4.31-112,4.31-112S344,288.65,352.63,258.49s-4.31-73.24-4.31-73.24c-43.08,0-150.79-86.16-150.79-86.16L232,51.7,158.76,73.24s-236.21,159-132.38,419.94c93.78,235.74,512,258.56,701.06,15.19C684.36,504.06,568,573,559.42,560.07Z"/><path class="cls-4" d="M165.79,166.19C94.82,143.37-1.51,371.51,105,424.74,172.29,458.41,283.65,204.07,165.79,166.19Z"/><path class="cls-1" d="M1451.73,801.23c0,30.1-114.63,54.5-256,54.5s-256-24.4-256-54.5,114.62-54.5,256-54.5S1451.73,771.13,1451.73,801.23Z"/><path class="cls-2" d="M923.36,251.5s51.7,4.31,60.31,34.47,34.47,38.77,34.47,38.77l73.24-12.92s73.24,34.46,77.55,73.24S1212,454,1212,454s90.47,60.31,155.1,56,103.39-8.62,103.39-8.62L1492,527.23l56-8.62L1328.33,682.32l-219.72,34.47L927.67,527.23,897.51,376.44Z"/><path class="cls-3" d="M923.36,251.5S850.12,410.91,932,613.39s248.23,237.55,426,138.41c165.29-92.2,190.11-233.19,190.11-233.19l-86.16,51.7L1393,557.39l-60.31,43.08-77.55,25.85L1220.63,678l-17.24-51.7L1100,561.69l-34.47,30.16L992.29,471.22l-68.93-51.7S914.74,303.2,923.36,251.5Z"/></svg>